<svg xmlns="http://www.w3.org/2000/svg" viewBox="0 0 36 30"><path d="M35.23 4.31a14.13 14.13 0 0 1-4.06 1.11 7.09 7.09 0 0 0 3.11-3.91 14.15 14.15 0 0 1-4.49 1.72 7.08 7.08 0 0 0-12 6.45A20.07 20.07 0 0 1 3.17 2.29a7.08 7.08 0 0 0 2.19 9.44 7 7 0 0 1-3.2-.88v.09a7.07 7.07 0 0 0 5.67 6.93 7.08 7.08 0 0 1-3.2.13 7.08 7.08 0 0 0 6.6 4.91 14.18 14.18 0 0 1-8.78 3 14.34 14.34 0 0 1-1.69-.1A20 20 0 0 0 11.61 29c13 0 20.11-10.77 20.11-20.11v-.91a14.36 14.36 0 0 0 3.51-3.67z" fill="gray" id="partner_click" data-name="partner click"/></svg>